# xmcd
#
# Track frame offsets:
#	150
#	18848
#	36374
#	53727
#	72336
#	87769
#	107261
#	122994
#	143276
#	153327
#	167458
#	179975
#
# Disc length: 2633 seconds
#
# Revision: 1
# Processed by: cddbd v1.5.2PL0 Copyright (c) Steve Scherf et al.
# Submitted via: audiograbber 1.83.01
#
DISCID=940a470c
DTITLE=Ben Krahne - Back To The Country Ben Krahne
DYEAR=1900
DGENRE=Country
TTITLE0=Back To The Country
TTITLE1=Honky Tonk Dream
TTITLE2=Won´t Break Again
TTITLE3=Chasin´ The Tiger
TTITLE4=Freight Train
TTITLE5=Peaceful Waters
TTITLE6=Backwoods 70´s Fool
TTITLE7=Again With Goodbye
TTITLE8=Gypsy Wind
TTITLE9=Hold On
TTITLE10=Workin´ Machine
TTITLE11=Keeper Of Time
EXTD=
EXTT0=
EXTT1=
EXTT2=
EXTT3=
EXTT4=
EXTT5=
EXTT6=
EXTT7=
EXTT8=
EXTT9=
EXTT10=
EXTT11=
PLAYORDER=
